<?xml version="1.0" encoding="utf-8"?>
<!-- Generator: Adobe Illustrator 23.0.1, SVG Export Plug-In . SVG Version: 6.00 Build 0)  -->
<svg version="1.1" id="Layer_1" xmlns="http://www.w3.org/2000/svg" xmlns:xlink="http://www.w3.org/1999/xlink" x="0px" y="0px"
	 viewBox="0 0 320.4 74.88" style="enable-background:new 0 0 320.4 74.88;" xml:space="preserve">
<g>
	<path d="M66.56,36.74v11.05c-0.72-0.41-1.37-0.61-1.96-0.61c-1.88,0-2.82,1.44-2.82,4.31v13.07H51.44V49.51
		c0-3.98,1.09-7.15,3.26-9.52c2.17-2.37,5.07-3.55,8.7-3.55C64.22,36.44,65.27,36.54,66.56,36.74z"/>
	<path d="M84.71,36.74v11.05c-0.72-0.41-1.37-0.61-1.96-0.61c-1.88,0-2.82,1.44-2.82,4.31v13.07H69.59V49.51
		c0-3.98,1.09-7.15,3.26-9.52c2.17-2.37,5.07-3.55,8.7-3.55C82.37,36.44,83.42,36.54,84.71,36.74z"/>
	<path d="M100.81,36.44c3.9,0,7.25,1.4,10.04,4.21c2.79,2.81,4.19,6.18,4.19,10.1c0,3.98-1.41,7.37-4.24,10.17
		c-2.83,2.8-6.24,4.2-10.24,4.2c-4,0-7.41-1.4-10.25-4.21c-2.84-2.81-4.25-6.19-4.25-10.15c0-4.03,1.42-7.43,4.25-10.18
		S96.65,36.44,100.81,36.44z M100.54,46.63c-1.11,0-2.04,0.4-2.82,1.2c-0.77,0.8-1.16,1.78-1.16,2.94c0,1.14,0.39,2.12,1.17,2.93
		s1.72,1.22,2.8,1.22c1.11,0,2.05-0.41,2.83-1.22c0.78-0.81,1.17-1.79,1.17-2.93c0-1.16-0.39-2.14-1.16-2.94
		C102.61,47.04,101.66,46.63,100.54,46.63z"/>
	<path d="M119.35,37.41h10.33v14.84c0,1.16,0.12,1.97,0.36,2.42c0.24,0.45,0.67,0.68,1.3,0.68c1.16,0,1.74-1.03,1.74-3.09V37.41
		h10.33v14.84c0,1.16,0.12,1.97,0.37,2.42s0.69,0.68,1.31,0.68c1.14,0,1.71-1.03,1.71-3.09V37.41h10.33v16.96
		c0,3.09-1.04,5.72-3.12,7.89c-2.08,2.16-4.6,3.25-7.57,3.25c-3.06,0-5.8-1.29-8.23-3.87c-2.69,2.58-5.4,3.87-8.12,3.87
		c-3.44,0-6.21-1.25-8.29-3.76c-1.64-1.97-2.46-4.82-2.46-8.54V37.41z"/>
	<path d="M187.68,37.02v27.55h-10.33V37.02H187.68z M182.54,24.73c1.4,0,2.61,0.49,3.63,1.48c1.02,0.99,1.53,2.15,1.53,3.5
		c0,1.44-0.48,2.62-1.45,3.54c-0.97,0.92-2.21,1.38-3.72,1.38s-2.75-0.46-3.72-1.38c-0.97-0.92-1.45-2.1-1.45-3.54
		c0-1.34,0.51-2.51,1.53-3.5C179.93,25.22,181.14,24.73,182.54,24.73z"/>
	<path d="M33.3,54.2v10.37H22.97V54.2L7.32,54.18l20.78-42.3l20.62,42.31L33.3,54.2z"/>
	<path d="M210.67,51.88l10.25-0.39c-0.29,3.98-1.78,7.25-4.45,9.81c-2.67,2.56-5.92,3.84-9.75,3.84c-4.05,0-7.47-1.41-10.26-4.23
		c-2.79-2.82-4.19-6.27-4.19-10.36c0-3.89,1.41-7.21,4.23-9.97c2.82-2.76,6.2-4.14,10.14-4.14c3.44,0,6.48,1.09,9.12,3.26
		s4.27,4.95,4.92,8.32L210.2,48.4c-0.9-1.18-2.04-1.77-3.43-1.77c-1.18,0-2.15,0.39-2.9,1.16c-0.76,0.77-1.13,1.75-1.13,2.93
		c0,1.2,0.4,2.2,1.2,3.01c0.8,0.81,1.8,1.22,3,1.22C208.69,54.95,209.93,53.93,210.67,51.88z"/>
	<path d="M238.49,36.44c3.9,0,7.25,1.4,10.04,4.21c2.79,2.81,4.19,6.18,4.19,10.1c0,3.98-1.41,7.37-4.24,10.17
		c-2.83,2.8-6.24,4.2-10.24,4.2c-4,0-7.41-1.4-10.25-4.21c-2.84-2.81-4.25-6.19-4.25-10.15c0-4.03,1.42-7.43,4.25-10.18
		C230.83,37.82,234.33,36.44,238.49,36.44z M238.21,46.63c-1.11,0-2.04,0.4-2.82,1.2c-0.77,0.8-1.16,1.78-1.16,2.94
		c0,1.14,0.39,2.12,1.17,2.93s1.72,1.22,2.8,1.22c1.11,0,2.05-0.41,2.83-1.22c0.78-0.81,1.17-1.79,1.17-2.93
		c0-1.16-0.39-2.14-1.16-2.94C240.28,47.04,239.34,46.63,238.21,46.63z"/>
	<path d="M281.59,64.57h-10.33V49.01c0-1.58-0.65-2.38-1.96-2.38c-1.29,0-1.93,0.79-1.93,2.38v15.55h-10.33V49.2
		c0-3.59,1.19-6.62,3.56-9.08c2.38-2.46,5.29-3.69,8.73-3.69c3.94,0,7.1,1.43,9.48,4.28c1.86,2.23,2.79,5.33,2.79,9.31V64.57z"/>
	<path d="M304.88,37.41v10.89c-1.46,0-2.45,0.27-3,0.82s-0.89,1.62-1.04,3.22c-0.48,5.32-2.54,9.08-6.19,11.27
		c-1.93,1.14-4.68,1.71-8.23,1.71h-1.44V54.37h0.47c1.66,0,2.84-0.35,3.55-1.04s1.12-1.9,1.23-3.63c0.15-2.82,0.41-4.8,0.79-5.94
		s1.15-2.27,2.31-3.4c2.03-1.97,4.83-2.96,8.43-2.96H304.88z"/>
</g>
</svg>
