<?xml version="1.0" encoding="utf-8"?>
<!-- Generator: Adobe Illustrator 23.0.1, SVG Export Plug-In . SVG Version: 6.00 Build 0)  -->
<svg version="1.1" xmlns="http://www.w3.org/2000/svg" xmlns:xlink="http://www.w3.org/1999/xlink" x="0px" y="0px"
	 viewBox="0 0 200.3 205.2" style="enable-background:new 0 0 200.3 205.2;" xml:space="preserve">
<style type="text/css">
	.st0{display:none;}
	.st1{display:inline;fill:none;stroke:#000000;stroke-width:6;stroke-linecap:round;stroke-linejoin:round;stroke-miterlimit:10;}
	.st2{display:inline;}
	.st3{fill:none;stroke:#000000;stroke-width:4;stroke-linecap:square;stroke-miterlimit:10;}
	.st4{display:inline;fill:none;stroke:#000000;stroke-width:12;stroke-linecap:square;stroke-miterlimit:10;}
	.st5{display:inline;fill:none;stroke:#000000;stroke-width:12;stroke-linecap:round;stroke-miterlimit:10;}
	.st6{display:inline;fill:none;stroke:#000000;stroke-width:12;stroke-linecap:round;stroke-linejoin:round;stroke-miterlimit:10;}
	.st7{display:inline;fill:none;stroke:#000000;stroke-width:4;stroke-linecap:round;stroke-miterlimit:10;}
	.st8{display:inline;fill:none;stroke:#000000;stroke-width:4;stroke-linecap:round;stroke-linejoin:round;stroke-miterlimit:10;}
</style>
<g id="arrow10" class="st0">
	<line class="st1" x1="115.62" y1="136.19" x2="115.62" y2="184.97"/>
	<line class="st1" x1="84.93" y1="136.19" x2="84.93" y2="184.97"/>
	<polyline class="st1" points="128.21,178.5 100.31,196.02 72.8,178.07 	"/>
	<line class="st1" x1="85.39" y1="69.01" x2="85.39" y2="20.23"/>
	<line class="st1" x1="116.08" y1="69.01" x2="116.08" y2="20.23"/>
	<polyline class="st1" points="72.8,26.7 100.69,9.18 128.21,27.13 	"/>
	<line class="st1" x1="66.56" y1="117.72" x2="17.78" y2="117.72"/>
	<line class="st1" x1="66.56" y1="87.02" x2="17.78" y2="87.02"/>
	<polyline class="st1" points="24.25,130.31 6.73,102.41 24.68,74.89 	"/>
	<line class="st1" x1="133.74" y1="87.48" x2="182.52" y2="87.48"/>
	<line class="st1" x1="133.74" y1="118.18" x2="182.52" y2="118.18"/>
	<polyline class="st1" points="176.05,74.89 193.57,102.79 175.62,130.31 	"/>
</g>
<g id="arrow9" class="st0">
	<polygon class="st2" points="99.05,194.52 125.7,133.08 99.05,158.53 74.6,133.08 	"/>
	<polygon class="st2" points="99.05,10.68 125.7,72.12 99.05,46.67 74.6,72.12 	"/>
	<polygon class="st2" points="192.07,102.3 130.63,75.65 156.08,102.3 130.63,126.75 	"/>
	<polygon class="st2" points="8.23,102.3 69.67,75.65 44.22,102.3 69.67,126.75 	"/>
</g>
<g id="arrow8" class="st0">
	<rect x="84.47" y="122.89" class="st2" width="31.36" height="13.32"/>
	<rect x="84.47" y="140.99" class="st2" width="31.36" height="13.32"/>
	<polygon class="st2" points="115.83,179.22 115.83,159.08 84.47,159.08 84.47,179.22 100.15,200.05 	"/>
	<rect x="84.47" y="68.99" class="st2" width="31.36" height="13.32"/>
	<rect x="84.47" y="50.9" class="st2" width="31.36" height="13.32"/>
	<polygon class="st2" points="115.83,25.98 115.83,46.12 84.47,46.12 84.47,25.98 100.15,5.15 	"/>
	<rect x="120.44" y="86.92" class="st2" width="13.32" height="31.36"/>
	<rect x="138.54" y="86.92" class="st2" width="13.32" height="31.36"/>
	<polygon class="st2" points="176.77,86.92 156.63,86.92 156.63,118.28 176.77,118.28 197.6,102.6 	"/>
	<rect x="66.54" y="86.92" class="st2" width="13.32" height="31.36"/>
	<rect x="48.45" y="86.92" class="st2" width="13.32" height="31.36"/>
	<polygon class="st2" points="23.53,86.92 43.67,86.92 43.67,118.28 23.53,118.28 2.7,102.6 	"/>
</g>
<g id="arrow7" class="st0">
	<polygon class="st2" points="95.6,112.77 95.6,186.1 90.4,186.1 99.86,200.97 109.9,186.06 104.12,186.06 104.12,112.77 	"/>
	<polygon class="st2" points="95.6,92.43 95.6,19.1 90.4,19.1 99.86,4.23 109.9,19.14 104.12,19.14 104.12,92.43 	"/>
	<polygon class="st2" points="110.32,107.09 183.65,107.09 183.65,112.3 198.52,102.83 183.61,92.79 183.61,98.57 110.32,98.57 	"/>
	<polygon class="st2" points="89.98,107.09 16.65,107.09 16.65,112.3 1.78,102.83 16.69,92.79 16.69,98.57 89.98,98.57 	"/>
</g>
<g id="arrow6" class="st0">
	<g class="st2">
		<path d="M119.97,129.75c-1.41,1.98-2.95,3.79-4.53,5.56c-1.58,1.76-3.23,3.44-4.91,5.08c-1.67,1.65-3.41,3.21-5.16,4.77
			c-1.77,1.53-3.56,3.04-5.39,4.49l-0.03,0.02c-1.13,0.9-2.7,0.84-3.76-0.05c-1.78-1.5-3.54-3.03-5.26-4.61
			c-1.73-1.57-3.41-3.2-5.06-4.85c-1.64-1.67-3.26-3.38-4.81-5.15c-1.55-1.78-3.07-3.6-4.45-5.58c2.2,1,4.26,2.17,6.3,3.37
			c2.03,1.21,4,2.48,5.94,3.8c1.93,1.33,3.84,2.68,5.69,4.1c1.87,1.4,3.69,2.86,5.49,4.34l-3.79-0.03c1.82-1.47,3.67-2.9,5.55-4.29
			c1.89-1.37,3.8-2.74,5.77-4.02c1.96-1.29,3.96-2.53,6.02-3.7C115.64,131.81,117.73,130.69,119.97,129.75z"/>
	</g>
	<g class="st2">
		<path d="M119.92,144.15c-1.41,1.98-2.95,3.79-4.53,5.56c-1.58,1.76-3.23,3.44-4.91,5.08c-1.67,1.65-3.41,3.21-5.16,4.77
			c-1.77,1.53-3.56,3.04-5.39,4.49l-0.03,0.02c-1.13,0.9-2.7,0.84-3.76-0.05c-1.78-1.5-3.54-3.03-5.26-4.61
			c-1.73-1.57-3.41-3.2-5.06-4.85c-1.64-1.67-3.26-3.38-4.81-5.15c-1.55-1.78-3.07-3.6-4.45-5.58c2.2,1,4.26,2.17,6.3,3.37
			c2.03,1.21,4,2.48,5.94,3.8c1.93,1.33,3.84,2.68,5.69,4.1c1.87,1.4,3.69,2.86,5.49,4.34l-3.79-0.03c1.82-1.47,3.67-2.9,5.55-4.29
			c1.89-1.37,3.8-2.74,5.77-4.02c1.96-1.29,3.96-2.53,6.02-3.7C115.58,146.22,117.68,145.1,119.92,144.15z"/>
	</g>
	<g class="st2">
		<path d="M119.86,159.67c-1.41,1.98-2.95,3.79-4.53,5.56c-1.58,1.76-3.23,3.44-4.91,5.08c-1.67,1.65-3.41,3.21-5.16,4.77
			c-1.77,1.53-3.56,3.04-5.39,4.49l-0.03,0.02c-1.13,0.9-2.7,0.84-3.76-0.05c-1.78-1.5-3.54-3.03-5.26-4.61
			c-1.73-1.57-3.41-3.2-5.06-4.85c-1.64-1.67-3.26-3.38-4.81-5.15c-1.55-1.78-3.07-3.61-4.45-5.58c2.2,1,4.26,2.17,6.3,3.37
			c2.03,1.21,4,2.48,5.94,3.8c1.93,1.33,3.84,2.68,5.69,4.1c1.87,1.4,3.69,2.86,5.49,4.34l-3.79-0.03c1.82-1.47,3.67-2.9,5.55-4.29
			c1.89-1.37,3.8-2.74,5.77-4.02c1.96-1.29,3.96-2.53,6.02-3.7C115.52,161.74,117.62,160.62,119.86,159.67z"/>
	</g>
	<g class="st2">
		<path d="M119.8,174.08c-1.41,1.98-2.95,3.79-4.53,5.56c-1.58,1.76-3.23,3.44-4.91,5.08c-1.67,1.65-3.41,3.21-5.16,4.77
			c-1.77,1.53-3.56,3.04-5.39,4.49l-0.03,0.02c-1.13,0.9-2.7,0.84-3.76-0.05c-1.78-1.5-3.54-3.03-5.26-4.61
			c-1.73-1.57-3.41-3.2-5.06-4.85c-1.64-1.67-3.26-3.38-4.81-5.15c-1.55-1.78-3.07-3.6-4.45-5.58c2.2,1,4.26,2.17,6.3,3.37
			c2.03,1.21,4,2.48,5.94,3.8c1.93,1.33,3.84,2.68,5.69,4.1c1.87,1.4,3.69,2.86,5.49,4.34l-3.79-0.03c1.82-1.47,3.67-2.9,5.55-4.29
			c1.89-1.37,3.8-2.74,5.77-4.02c1.96-1.29,3.96-2.53,6.02-3.7C115.47,176.15,117.56,175.03,119.8,174.08z"/>
	</g>
	<g class="st2">
		<path d="M76.33,75.45c1.41-1.98,2.95-3.79,4.53-5.56c1.58-1.76,3.23-3.44,4.91-5.08c1.67-1.65,3.41-3.21,5.16-4.77
			c1.77-1.53,3.56-3.04,5.39-4.49l0.03-0.02c1.13-0.9,2.7-0.84,3.76,0.05c1.78,1.5,3.54,3.03,5.26,4.61
			c1.73,1.57,3.41,3.2,5.06,4.85c1.64,1.67,3.26,3.38,4.81,5.15c1.55,1.78,3.07,3.61,4.45,5.58c-2.2-1-4.26-2.17-6.3-3.37
			c-2.03-1.21-4-2.48-5.94-3.8c-1.93-1.33-3.84-2.68-5.69-4.1c-1.87-1.4-3.69-2.86-5.49-4.34l3.79,0.03
			c-1.82,1.47-3.67,2.9-5.55,4.29c-1.89,1.37-3.8,2.74-5.77,4.02c-1.96,1.29-3.96,2.53-6.02,3.7
			C80.66,73.39,78.57,74.51,76.33,75.45z"/>
	</g>
	<g class="st2">
		<path d="M76.38,61.05c1.41-1.98,2.95-3.79,4.53-5.56c1.58-1.76,3.23-3.44,4.91-5.08c1.67-1.65,3.41-3.21,5.16-4.77
			c1.77-1.53,3.56-3.04,5.39-4.49l0.03-0.02c1.13-0.9,2.7-0.84,3.76,0.05c1.78,1.5,3.54,3.03,5.26,4.61
			c1.73,1.57,3.41,3.2,5.06,4.85c1.64,1.67,3.26,3.38,4.81,5.15c1.55,1.78,3.07,3.6,4.45,5.58c-2.2-1-4.26-2.17-6.3-3.37
			c-2.03-1.21-4-2.48-5.94-3.8c-1.93-1.33-3.84-2.68-5.69-4.1c-1.87-1.4-3.69-2.86-5.49-4.34l3.79,0.03
			c-1.82,1.47-3.67,2.9-5.55,4.29c-1.89,1.37-3.8,2.74-5.77,4.02c-1.96,1.29-3.96,2.53-6.02,3.7C80.72,58.98,78.62,60.1,76.38,61.05
			z"/>
	</g>
	<g class="st2">
		<path d="M76.44,45.53c1.41-1.98,2.95-3.79,4.53-5.56c1.58-1.76,3.23-3.44,4.91-5.08c1.67-1.65,3.41-3.21,5.16-4.77
			c1.77-1.53,3.56-3.04,5.39-4.49l0.03-0.02c1.13-0.9,2.7-0.84,3.76,0.05c1.78,1.5,3.54,3.03,5.26,4.61
			c1.73,1.57,3.41,3.2,5.06,4.85c1.64,1.67,3.26,3.38,4.81,5.15c1.55,1.78,3.07,3.6,4.45,5.58c-2.2-1-4.26-2.17-6.3-3.37
			c-2.03-1.21-4-2.48-5.94-3.8c-1.93-1.33-3.84-2.68-5.69-4.1c-1.87-1.4-3.69-2.86-5.49-4.34l3.79,0.03
			c-1.82,1.47-3.67,2.9-5.55,4.29c-1.89,1.37-3.8,2.74-5.77,4.02c-1.96,1.29-3.96,2.53-6.02,3.7
			C80.78,43.46,78.68,44.58,76.44,45.53z"/>
	</g>
	<g class="st2">
		<path d="M76.5,31.12c1.41-1.98,2.95-3.79,4.53-5.56c1.58-1.76,3.23-3.44,4.91-5.08c1.67-1.65,3.41-3.21,5.16-4.77
			c1.77-1.53,3.56-3.04,5.39-4.49l0.03-0.02c1.13-0.9,2.7-0.84,3.76,0.05c1.78,1.5,3.54,3.03,5.26,4.61
			c1.73,1.57,3.41,3.2,5.06,4.85c1.64,1.67,3.26,3.38,4.81,5.15c1.55,1.78,3.07,3.6,4.45,5.58c-2.2-1-4.26-2.17-6.3-3.37
			c-2.03-1.21-4-2.48-5.94-3.8c-1.93-1.33-3.84-2.68-5.69-4.1c-1.87-1.4-3.69-2.86-5.49-4.34l3.79,0.03
			c-1.82,1.47-3.67,2.9-5.55,4.29c-1.89,1.37-3.8,2.74-5.77,4.02c-1.96,1.29-3.96,2.53-6.02,3.7C80.83,29.05,78.74,30.17,76.5,31.12
			z"/>
	</g>
	<g class="st2">
		<path d="M73,124.42c-1.98-1.41-3.79-2.95-5.56-4.53c-1.76-1.58-3.44-3.23-5.08-4.91c-1.65-1.67-3.21-3.41-4.77-5.16
			c-1.53-1.77-3.04-3.56-4.49-5.39l-0.02-0.03c-0.9-1.13-0.84-2.7,0.05-3.76c1.5-1.78,3.03-3.54,4.61-5.26
			c1.57-1.73,3.2-3.41,4.85-5.06c1.67-1.64,3.38-3.26,5.15-4.81c1.78-1.55,3.6-3.07,5.58-4.45c-1,2.2-2.17,4.26-3.37,6.3
			c-1.21,2.03-2.48,4-3.8,5.94c-1.33,1.93-2.68,3.84-4.1,5.69c-1.4,1.87-2.86,3.69-4.34,5.49l0.03-3.79
			c1.47,1.82,2.9,3.67,4.29,5.55c1.37,1.89,2.74,3.8,4.02,5.77c1.29,1.96,2.53,3.96,3.7,6.02C70.94,120.09,72.06,122.18,73,124.42z"
			/>
	</g>
	<g class="st2">
		<path d="M58.6,124.37c-1.98-1.41-3.79-2.95-5.56-4.53c-1.76-1.58-3.44-3.23-5.08-4.91c-1.65-1.67-3.21-3.41-4.77-5.16
			c-1.53-1.77-3.04-3.56-4.49-5.39l-0.02-0.03c-0.9-1.13-0.84-2.7,0.05-3.76c1.5-1.78,3.03-3.54,4.61-5.26
			c1.57-1.73,3.2-3.41,4.85-5.06c1.67-1.64,3.38-3.26,5.15-4.81c1.78-1.55,3.6-3.07,5.58-4.45c-1,2.2-2.17,4.26-3.37,6.3
			c-1.21,2.03-2.48,4-3.8,5.94c-1.33,1.93-2.68,3.84-4.1,5.69c-1.4,1.87-2.86,3.69-4.34,5.49l0.03-3.79
			c1.47,1.82,2.9,3.67,4.29,5.55c1.37,1.89,2.74,3.8,4.02,5.77c1.29,1.96,2.53,3.96,3.7,6.02C56.53,120.03,57.65,122.13,58.6,124.37
			z"/>
	</g>
	<g class="st2">
		<path d="M43.08,124.31c-1.98-1.41-3.79-2.95-5.56-4.53c-1.76-1.58-3.44-3.23-5.08-4.91c-1.65-1.67-3.21-3.41-4.77-5.16
			c-1.53-1.77-3.04-3.56-4.49-5.39l-0.02-0.03c-0.9-1.13-0.84-2.7,0.05-3.76c1.5-1.78,3.03-3.54,4.61-5.26
			c1.57-1.73,3.2-3.41,4.85-5.06c1.67-1.64,3.38-3.26,5.15-4.81c1.78-1.55,3.6-3.07,5.58-4.45c-1,2.2-2.17,4.26-3.37,6.3
			c-1.21,2.03-2.48,4-3.8,5.94c-1.33,1.93-2.68,3.84-4.1,5.69c-1.4,1.87-2.86,3.69-4.34,5.49l0.03-3.79
			c1.47,1.82,2.9,3.67,4.29,5.55c1.37,1.89,2.74,3.8,4.02,5.77c1.29,1.96,2.53,3.96,3.7,6.02
			C41.01,119.97,42.13,122.07,43.08,124.31z"/>
	</g>
	<g class="st2">
		<path d="M28.67,124.25c-1.98-1.41-3.79-2.95-5.56-4.53c-1.76-1.58-3.44-3.23-5.08-4.91c-1.65-1.67-3.21-3.41-4.77-5.16
			c-1.53-1.77-3.04-3.56-4.49-5.39l-0.02-0.03c-0.9-1.13-0.84-2.7,0.05-3.76c1.5-1.78,3.03-3.54,4.61-5.26
			c1.57-1.73,3.2-3.41,4.85-5.06c1.67-1.64,3.38-3.26,5.15-4.81c1.78-1.55,3.6-3.07,5.58-4.45c-1,2.2-2.17,4.26-3.37,6.3
			c-1.21,2.03-2.48,4-3.8,5.94c-1.33,1.93-2.68,3.84-4.1,5.69c-1.4,1.87-2.86,3.69-4.34,5.49l0.03-3.79
			c1.47,1.82,2.9,3.67,4.29,5.55c1.37,1.89,2.74,3.8,4.02,5.77c1.29,1.96,2.53,3.96,3.7,6.02C26.6,119.92,27.72,122.01,28.67,124.25
			z"/>
	</g>
	<g class="st2">
		<path d="M127.3,80.78c1.98,1.41,3.79,2.95,5.56,4.53c1.76,1.58,3.44,3.23,5.08,4.91c1.65,1.67,3.21,3.41,4.77,5.16
			c1.53,1.77,3.04,3.56,4.49,5.39l0.02,0.03c0.9,1.13,0.84,2.7-0.05,3.76c-1.5,1.78-3.03,3.54-4.61,5.26
			c-1.57,1.73-3.2,3.41-4.85,5.06c-1.67,1.64-3.38,3.26-5.15,4.81c-1.78,1.55-3.6,3.07-5.58,4.45c1-2.2,2.17-4.26,3.37-6.3
			c1.21-2.03,2.48-4,3.8-5.94c1.33-1.93,2.68-3.84,4.1-5.69c1.4-1.87,2.86-3.69,4.34-5.49l-0.03,3.79c-1.47-1.82-2.9-3.67-4.29-5.55
			c-1.37-1.89-2.74-3.8-4.02-5.77c-1.29-1.96-2.53-3.96-3.7-6.02C129.36,85.11,128.24,83.02,127.3,80.78z"/>
	</g>
	<g class="st2">
		<path d="M141.7,80.83c1.98,1.41,3.79,2.95,5.56,4.53c1.76,1.58,3.44,3.23,5.08,4.91c1.65,1.67,3.21,3.41,4.77,5.16
			c1.53,1.77,3.04,3.56,4.49,5.39l0.02,0.03c0.9,1.13,0.84,2.7-0.05,3.76c-1.5,1.78-3.03,3.54-4.61,5.26
			c-1.57,1.73-3.2,3.41-4.85,5.06c-1.67,1.64-3.38,3.26-5.15,4.81c-1.78,1.55-3.6,3.07-5.58,4.45c1-2.2,2.17-4.26,3.37-6.3
			c1.21-2.03,2.48-4,3.8-5.94c1.33-1.93,2.68-3.84,4.1-5.69c1.4-1.87,2.86-3.69,4.34-5.49l-0.03,3.79c-1.47-1.82-2.9-3.67-4.29-5.55
			c-1.37-1.89-2.74-3.8-4.02-5.77c-1.29-1.96-2.53-3.96-3.7-6.02C143.77,85.17,142.65,83.07,141.7,80.83z"/>
	</g>
	<g class="st2">
		<path d="M157.22,80.89c1.98,1.41,3.79,2.95,5.56,4.53c1.76,1.58,3.44,3.23,5.08,4.91c1.65,1.67,3.21,3.41,4.77,5.16
			c1.53,1.77,3.04,3.56,4.49,5.39l0.02,0.03c0.9,1.13,0.84,2.7-0.05,3.76c-1.5,1.78-3.03,3.54-4.61,5.26
			c-1.57,1.73-3.2,3.41-4.85,5.06c-1.67,1.64-3.38,3.26-5.15,4.81c-1.78,1.55-3.6,3.07-5.58,4.45c1-2.2,2.17-4.26,3.37-6.3
			c1.21-2.03,2.48-4,3.8-5.94c1.33-1.93,2.68-3.84,4.1-5.69c1.4-1.87,2.86-3.69,4.34-5.49l-0.03,3.79c-1.47-1.82-2.9-3.67-4.29-5.55
			c-1.37-1.89-2.74-3.8-4.02-5.77c-1.29-1.96-2.53-3.96-3.7-6.02C159.29,85.23,158.17,83.13,157.22,80.89z"/>
	</g>
	<g class="st2">
		<path d="M171.63,80.95c1.98,1.41,3.79,2.95,5.56,4.53c1.76,1.58,3.44,3.23,5.08,4.91c1.65,1.67,3.21,3.41,4.77,5.16
			c1.53,1.77,3.04,3.56,4.49,5.39l0.02,0.03c0.9,1.13,0.84,2.7-0.05,3.76c-1.5,1.78-3.03,3.54-4.61,5.26
			c-1.57,1.73-3.2,3.41-4.85,5.06c-1.67,1.64-3.38,3.26-5.15,4.81c-1.78,1.55-3.6,3.07-5.58,4.45c1-2.2,2.17-4.26,3.37-6.3
			c1.21-2.03,2.48-4,3.8-5.94c1.33-1.93,2.68-3.84,4.1-5.69c1.4-1.87,2.86-3.69,4.34-5.49l-0.03,3.79c-1.47-1.82-2.9-3.67-4.29-5.55
			c-1.37-1.89-2.74-3.8-4.02-5.77c-1.29-1.96-2.53-3.96-3.7-6.02C173.7,85.28,172.58,83.19,171.63,80.95z"/>
	</g>
</g>
<g id="arrow5" class="st0">
	<polygon class="st2" points="82.17,113.92 44.06,113.92 44.06,126.39 7.45,103.72 44.38,79.67 44.38,93.51 82.17,93.51 	"/>
	<polygon class="st2" points="118.13,113.06 156.24,113.06 156.24,125.53 192.85,102.86 155.92,78.81 155.92,92.66 118.13,92.66 	
		"/>
	<polygon class="st2" points="111.47,120.58 111.47,158.69 123.94,158.69 101.27,195.3 77.22,158.37 91.06,158.37 91.06,120.58 	"/>
	<polygon class="st2" points="110.61,84.62 110.61,46.51 123.08,46.51 100.41,9.9 76.36,46.83 90.21,46.83 90.21,84.62 	"/>
</g>
<g id="arrow4">
	<polygon class="st3" points="82.17,113.92 44.06,113.92 44.06,126.39 7.45,103.72 44.38,79.67 44.38,93.51 82.17,93.51 	"/>
	<polygon class="st3" points="118.13,113.06 156.24,113.06 156.24,125.53 192.85,102.86 155.92,78.81 155.92,92.66 118.13,92.66 	
		"/>
	<polygon class="st3" points="111.47,120.58 111.47,158.69 123.94,158.69 101.27,195.3 77.22,158.37 91.06,158.37 91.06,120.58 	"/>
	<polygon class="st3" points="110.61,84.62 110.61,46.51 123.08,46.51 100.41,9.9 76.36,46.83 90.21,46.83 90.21,84.62 	"/>
</g>
<g id="arrow3" class="st0">
	<line class="st4" x1="178.15" y1="103.6" x2="122.15" y2="103.6"/>
	<polyline class="st4" points="171.15,121.6 187.15,103.21 171.15,83.6 	"/>
	<line class="st4" x1="22.15" y1="103.6" x2="78.15" y2="103.6"/>
	<polyline class="st4" points="29.15,121.6 13.15,103.21 29.15,83.6 	"/>
	<line class="st4" x1="99.15" y1="180.6" x2="99.15" y2="124.6"/>
	<polyline class="st4" points="81.15,173.6 99.54,189.6 119.15,173.6 	"/>
	<line class="st4" x1="99.15" y1="24.6" x2="99.15" y2="80.6"/>
	<polyline class="st4" points="81.15,31.6 99.54,15.6 119.15,31.6 	"/>
</g>
<g id="arrow2" class="st0">
	<line class="st5" x1="178.15" y1="103.6" x2="122.15" y2="103.6"/>
	<polyline class="st6" points="171.15,121.6 187.15,103.21 171.15,83.6 	"/>
	<line class="st5" x1="22.15" y1="103.6" x2="78.15" y2="103.6"/>
	<polyline class="st6" points="29.15,121.6 13.15,103.21 29.15,83.6 	"/>
	<line class="st5" x1="99.15" y1="180.6" x2="99.15" y2="124.6"/>
	<polyline class="st6" points="81.15,173.6 99.54,189.6 119.15,173.6 	"/>
	<line class="st5" x1="99.15" y1="24.6" x2="99.15" y2="80.6"/>
	<polyline class="st6" points="81.15,31.6 99.54,15.6 119.15,31.6 	"/>
</g>
<g id="arrow1" class="st0">
	<line class="st7" x1="178.15" y1="103.6" x2="122.15" y2="103.6"/>
	<polyline class="st8" points="171.15,121.6 187.15,103.21 171.15,83.6 	"/>
	<line class="st7" x1="22.15" y1="103.6" x2="78.15" y2="103.6"/>
	<polyline class="st8" points="29.15,121.6 13.15,103.21 29.15,83.6 	"/>
	<line class="st7" x1="99.15" y1="180.6" x2="99.15" y2="124.6"/>
	<polyline class="st8" points="81.15,173.6 99.54,189.6 119.15,173.6 	"/>
	<line class="st7" x1="99.15" y1="24.6" x2="99.15" y2="80.6"/>
	<polyline class="st8" points="81.15,31.6 99.54,15.6 119.15,31.6 	"/>
</g>
</svg>
